AmstelvarA2-Roman_wght800.ufo
<glyph name="parenright" format="2">
  <advance width="764"/>
  <unicode hex="0029"/>
  <outline>
    <contour>
      <point x="696" y="521" type="qcurve" smooth="yes"/>
      <point x="696" y="213"/>
      <point x="312" y="-348"/>
      <point x="97" y="-485" type="qcurve"/>
      <point x="20" y="-424" type="line"/>
      <point x="151" y="-273"/>
      <point x="343" y="239"/>
      <point x="343" y="521" type="qcurve" smooth="yes"/>
      <point x="343" y="803"/>
      <point x="147" y="1310"/>
      <point x="20" y="1465" type="qcurve"/>
      <point x="97" y="1526" type="line"/>
      <point x="312" y="1389"/>
      <point x="696" y="816"/>
    </contour>
  </outline>
</glyph>
<glyph name="period" format="2">
  <advance width="545"/>
  <unicode hex="002E"/>
  <outline>
    <contour>
      <point x="65" y="184" type="qcurve" smooth="yes"/>
      <point x="65" y="268"/>
      <point x="182" y="391"/>
      <point x="272" y="391" type="qcurve" smooth="yes"/>
      <point x="363" y="391"/>
      <point x="480" y="268"/>
      <point x="480" y="184" type="qcurve" smooth="yes"/>
      <point x="480" y="102"/>
      <point x="363" y="-22"/>
      <point x="272" y="-22" type="qcurve"/>
      <point x="182" y="-22"/>
      <point x="65" y="102"/>
    </contour>
  </outline>
</glyph>
<glyph name="slash" format="2">
  <advance width="521"/>
  <unicode hex="002F"/>
  <outline>
    <contour>
      <point x="-65" y="-117" type="line"/>
      <point x="413" y="1556" type="line"/>
      <point x="563" y="1522" type="line"/>
      <point x="85" y="-151" type="line"/>
    </contour>
  </outline>
</glyph>
<glyph name="one" format="2">
  <advance width="973"/>
  <unicode hex="0031"/>
  <outline>
    <contour>
      <point x="47" y="0" type="line"/>
      <point x="47" y="114" type="line"/>
      <point x="299" y="149" type="line"/>
      <point x="299" y="756" type="line"/>
      <point x="297" y="1342" type="line"/>
      <point x="45" y="1376" type="line"/>
      <point x="45" y="1496" type="line"/>
      <point x="657" y="1519" type="line"/>
      <point x="689" y="1484" type="line"/>
      <point x="683" y="756" type="line"/>
      <point x="683" y="149" type="line"/>
      <point x="935" y="114" type="line"/>
      <point x="935" y="0" type="line"/>
    </contour>
  </outline>
</glyph>
<glyph name="two" format="2">
  <advance width="1056"/>
  <unicode hex="0032"/>
  <outline>
    <contour>
      <point x="25" y="0" type="line"/>
      <point x="25" y="225" type="line"/>
      <point x="51" y="362"/>
      <point x="195" y="618"/>
      <point x="342" y="740" type="qcurve" smooth="yes"/>
      <point x="486" y="863"/>
      <point x="604" y="1013"/>
      <point x="604" y="1137" type="qcurve" smooth="yes"/>
      <point x="604" y="1243"/>
      <point x="493" y="1376"/>
      <point x="405" y="1376" type="qcurve" smooth="yes"/>
      <point x="307" y="1376"/>
      <point x="157" y="1289"/>
      <point x="91" y="1196" type="qcurve"/>
      <point x="15" y="1300" type="line"/>
      <point x="89" y="1408"/>
      <point x="324" y="1526"/>
      <point x="505" y="1526" type="qcurve" smooth="yes"/>
      <point x="764" y="1526"/>
      <point x="996" y="1331"/>
      <point x="996" y="1169" type="qcurve" smooth="yes"/>
      <point x="996" y="985"/>
      <point x="763" y="728"/>
      <point x="581" y="640" type="qcurve" smooth="yes"/>
      <point x="455" y="566"/>
      <point x="309" y="423"/>
      <point x="284" y="355" type="qcurve"/>
      <point x="294" y="341" type="line"/>
      <point x="1046" y="341" type="line"/>
      <point x="1046" y="0" type="line"/>
    </contour>
  </outline>
</glyph>
<glyph name="greater" format="2">
  <advance width="674"/>
  <unicode hex="003E"/>
  <outline>
    <contour>
      <point x="89" y="283" type="qcurve" smooth="yes"/>
      <point x="154" y="430"/>
      <point x="252" y="637"/>
      <point x="255" y="637" type="qcurve"/>
      <point x="252" y="637"/>
      <point x="162" y="835"/>
      <point x="97" y="982" type="qcurve" smooth="yes"/>
      <point x="62" y="1045"/>
      <point x="156" y="1119"/>
      <point x="214" y="1055" type="qcurve" smooth="yes"/>
      <point x="266" y="995"/>
      <point x="598" y="641"/>
      <point x="600" y="637" type="qcurve"/>
      <point x="598" y="633"/>
      <point x="259" y="271"/>
      <point x="206" y="209" type="qcurve" smooth="yes"/>
      <point x="148" y="145"/>
      <point x="54" y="220"/>
    </contour>
  </outline>
</glyph>
<glyph name="question" format="2">
  <advance width="1048"/>
  <unicode hex="003F"/>
  <outline>
    <contour>
      <point x="246" y="184" type="qcurve" smooth="yes"/>
      <point x="246" y="268"/>
      <point x="362" y="391"/>
      <point x="453" y="391" type="qcurve" smooth="yes"/>
      <point x="544" y="391"/>
      <point x="660" y="268"/>
      <point x="660" y="184" type="qcurve" smooth="yes"/>
      <point x="660" y="102"/>
      <point x="544" y="-22"/>
      <point x="453" y="-22" type="qcurve" smooth="yes"/>
      <point x="362" y="-22"/>
      <point x="246" y="102"/>
    </contour>
    <contour>
      <point x="19" y="1200" type="qcurve" smooth="yes"/>
      <point x="19" y="1345"/>
      <point x="245" y="1540"/>
      <point x="493" y="1540" type="qcurve" smooth="yes"/>
      <point x="776" y="1540"/>
      <point x="1034" y="1343"/>
      <point x="1034" y="1163" type="qcurve" smooth="yes"/>
      <point x="1034" y="991"/>
      <point x="826" y="806"/>
      <point x="743" y="770" type="qcurve" smooth="yes"/>
      <point x="668" y="736"/>
      <point x="498" y="635"/>
      <point x="498" y="569" type="qcurve" smooth="yes"/>
      <point x="498" y="500" type="line"/>
      <point x="384" y="500" type="line"/>
      <point x="373" y="556" type="line" smooth="yes"/>
      <point x="359" y="629"/>
      <point x="424" y="777"/>
      <point x="514" y="840" type="qcurve" smooth="yes"/>
      <point x="586" y="892"/>
      <point x="698" y="1015"/>
      <point x="698" y="1147" type="qcurve" smooth="yes"/>
      <point x="698" y="1278"/>
      <point x="570" y="1421"/>
      <point x="465" y="1421" type="qcurve" smooth="yes"/>
      <point x="367" y="1421"/>
      <point x="257" y="1338"/>
      <point x="257" y="1283" type="qcurve" smooth="yes"/>
      <point x="257" y="1245"/>
      <point x="395" y="1172"/>
      <point x="397" y="1108" type="qcurve" smooth="yes"/>
      <point x="400" y="1056"/>
      <point x="314" y="972"/>
      <point x="229" y="972" type="qcurve" smooth="yes"/>
      <point x="136" y="972"/>
      <point x="19" y="1094"/>
    </contour>
  </outline>
</glyph>
<glyph name="d" format="2">
  <advance width="1434"/>
  <unicode hex="0064"/>
  <anchor x="671" y="0" name="bottom"/>
  <anchor x="1071" y="1202" name="center"/>
  <anchor x="671" y="1534" name="top"/>
  <anchor x="1238" y="1000" name="topright"/>
  <outline>
    <contour>
      <point x="33" y="494" type="qcurve" smooth="yes"/>
      <point x="33" y="746"/>
      <point x="330" y="1054"/>
      <point x="572" y="1054" type="qcurve" smooth="yes"/>
      <point x="660" y="1054"/>
      <point x="831" y="1008"/>
      <point x="886" y="971" type="qcurve"/>
      <point x="879" y="1348" type="line"/>
      <point x="712" y="1378" type="line"/>
      <point x="712" y="1500" type="line"/>
      <point x="1194" y="1534" type="line"/>
      <point x="1225" y="1534" type="line"/>
      <point x="1253" y="1502" type="line"/>
      <point x="1250" y="556" type="line"/>
      <point x="1258" y="143" type="line"/>
      <point x="1408" y="108" type="line"/>
      <point x="1408" y="0" type="line"/>
      <point x="959" y="0" type="line"/>
      <point x="908" y="60" type="line"/>
      <point x="891" y="154" type="line"/>
      <point x="837" y="88"/>
      <point x="658" y="-9"/>
      <point x="523" y="-9" type="qcurve" smooth="yes"/>
      <point x="305" y="-9"/>
      <point x="33" y="263"/>
    </contour>
    <contour>
      <point x="421" y="521" type="qcurve" smooth="yes"/>
      <point x="421" y="336"/>
      <point x="551" y="131"/>
      <point x="667" y="131" type="qcurve" smooth="yes"/>
      <point x="750" y="131"/>
      <point x="858" y="219"/>
      <point x="889" y="280" type="qcurve"/>
      <point x="895" y="542" type="line"/>
      <point x="894" y="813" type="line"/>
      <point x="863" y="868"/>
      <point x="756" y="935"/>
      <point x="683" y="935" type="qcurve" smooth="yes"/>
      <point x="563" y="935"/>
      <point x="421" y="696"/>
    </contour>
  </outline>
</glyph>
<glyph name="h" format="2">
  <advance width="1497"/>
  <unicode hex="0068"/>
  <anchor x="749" y="0" name="bottom"/>
  <anchor x="396" y="1202" name="center"/>
  <anchor x="481" y="1534" name="top"/>
  <outline>
    <contour>
      <point x="51" y="0" type="line"/>
      <point x="51" y="108" type="line"/>
      <point x="193" y="143" type="line"/>
      <point x="195" y="529" type="line"/>
      <point x="193" y="1348" type="line"/>
      <point x="27" y="1378" type="line"/>
      <point x="27" y="1500" type="line"/>
      <point x="505" y="1534" type="line"/>
      <point x="537" y="1534" type="line"/>
      <point x="565" y="1502" type="line"/>
      <point x="564" y="887" type="line"/>
      <point x="624" y="958"/>
      <point x="820" y="1056"/>
      <point x="943" y="1056" type="qcurve" smooth="yes"/>
      <point x="1123" y="1056"/>
      <point x="1317" y="907"/>
      <point x="1317" y="777" type="qcurve" smooth="yes"/>
      <point x="1317" y="692"/>
      <point x="1312" y="529"/>
      <point x="1312" y="529" type="qcurve"/>
      <point x="1316" y="143" type="line"/>
      <point x="1465" y="108" type="line"/>
      <point x="1465" y="0" type="line"/>
      <point x="787" y="0" type="line"/>
      <point x="787" y="108" type="line"/>
      <point x="945" y="143" type="line"/>
      <point x="947" y="519" type="line"/>
      <point x="947" y="723" type="line" smooth="yes"/>
      <point x="947" y="799"/>
      <point x="870" y="898"/>
      <point x="798" y="898" type="qcurve" smooth="yes"/>
      <point x="732" y="898"/>
      <point x="604" y="818"/>
      <point x="563" y="745" type="qcurve"/>
      <point x="563" y="519" type="line"/>
      <point x="565" y="143" type="line"/>
      <point x="703" y="108" type="line"/>
      <point x="703" y="0" type="line"/>
    </contour>
  </outline>
</glyph>
<glyph name="n" format="2">
  <advance width="1489"/>
  <unicode hex="006E"/>
  <anchor x="736" y="0" name="bottom"/>
  <anchor x="757" y="1034" name="top"/>
  <outline>
    <contour>
      <point x="36" y="0" type="line"/>
      <point x="36" y="108" type="line"/>
      <point x="185" y="143" type="line"/>
      <point x="186" y="529" type="line"/>
      <point x="184" y="848" type="line"/>
      <point x="36" y="878" type="line"/>
      <point x="36" y="1000" type="line"/>
      <point x="497" y="1034" type="line"/>
      <point x="532" y="1007" type="line"/>
      <point x="557" y="888" type="line"/>
      <point x="619" y="963"/>
      <point x="813" y="1055"/>
      <point x="935" y="1055" type="qcurve" smooth="yes"/>
      <point x="1116" y="1055"/>
      <point x="1309" y="906"/>
      <point x="1309" y="776" type="qcurve" smooth="yes"/>
      <point x="1309" y="702"/>
      <point x="1304" y="554"/>
      <point x="1304" y="529" type="qcurve" smooth="yes"/>
      <point x="1309" y="143" type="line"/>
      <point x="1457" y="108" type="line"/>
      <point x="1457" y="0" type="line"/>
      <point x="778" y="0" type="line"/>
      <point x="778" y="108" type="line"/>
      <point x="937" y="143" type="line"/>
      <point x="938" y="519" type="line"/>
      <point x="938" y="723" type="line" smooth="yes"/>
      <point x="938" y="806"/>
      <point x="858" y="898"/>
      <point x="789" y="898" type="qcurve" smooth="yes"/>
      <point x="718" y="898"/>
      <point x="592" y="815"/>
      <point x="556" y="746" type="qcurve"/>
      <point x="555" y="519" type="line"/>
      <point x="557" y="143" type="line"/>
      <point x="695" y="108" type="line"/>
      <point x="695" y="0" type="line"/>
    </contour>
  </outline>
</glyph>
<glyph name="p" format="2">
  <advance width="1429"/>
  <unicode hex="0070"/>
  <anchor x="773" y="0" name="bottom"/>
  <anchor x="773" y="1034" name="top"/>
  <outline>
    <contour>
      <point x="33" y="-480" type="line"/>
      <point x="33" y="-372" type="line"/>
      <point x="176" y="-337" type="line"/>
      <point x="178" y="450" type="line"/>
      <point x="177" y="848" type="line"/>
      <point x="28" y="878" type="line"/>
      <point x="28" y="1000" type="line"/>
      <point x="498" y="1034" type="line"/>
      <point x="533" y="1007" type="line"/>
      <point x="548" y="896" type="line"/>
      <point x="605" y="966"/>
      <point x="792" y="1054"/>
      <point x="923" y="1054" type="qcurve" smooth="yes"/>
      <point x="1128" y="1054"/>
      <point x="1396" y="779"/>
      <point x="1396" y="546" type="qcurve" smooth="yes"/>
      <point x="1396" y="295"/>
      <point x="1117" y="-12"/>
      <point x="882" y="-12" type="qcurve" smooth="yes"/>
      <point x="769" y="-12"/>
      <point x="596" y="49"/>
      <point x="546" y="89" type="qcurve"/>
      <point x="548" y="-337" type="line"/>
      <point x="700" y="-372" type="line"/>
      <point x="700" y="-480" type="line"/>
    </contour>
    <contour>
      <point x="546" y="249" type="line"/>
      <point x="576" y="191"/>
      <point x="694" y="106"/>
      <point x="775" y="106" type="qcurve" smooth="yes"/>
      <point x="882" y="106"/>
      <point x="1006" y="329"/>
      <point x="1006" y="522" type="qcurve" smooth="yes"/>
      <point x="1006" y="707"/>
      <point x="883" y="916"/>
      <point x="779" y="916" type="qcurve" smooth="yes"/>
      <point x="698" y="916"/>
      <point x="584" y="833"/>
      <point x="547" y="770" type="qcurve"/>
      <point x="544" y="453" type="line"/>
    </contour>
  </outline>
</glyph>
<glyph name="section" format="2">
  <advance width="963"/>
  <unicode hex="00A7"/>
  <outline>
    <contour>
      <point x="916" y="137" type="qcurve" smooth="yes"/>
      <point x="916" y="-35"/>
      <point x="702" y="-253"/>
      <point x="523" y="-253" type="qcurve" smooth="yes"/>
      <point x="410" y="-253"/>
      <point x="244" y="-187"/>
      <point x="193" y="-135" type="qcurve"/>
      <point x="152" y="-235" type="line"/>
      <point x="56" y="-235" type="line"/>
      <point x="56" y="196" type="line"/>
      <point x="162" y="196" type="line"/>
      <point x="180" y="103" type="line" smooth="yes"/>
      <point x="205" y="-27"/>
      <point x="386" y="-134"/>
      <point x="510" y="-134" type="qcurve" smooth="yes"/>
      <point x="645" y="-134"/>
      <point x="764" y="-9"/>
      <point x="764" y="95" type="qcurve" smooth="yes"/>
      <point x="764" y="220"/>
      <point x="602" y="334"/>
      <point x="431" y="401" type="qcurve" smooth="yes"/>
      <point x="272" y="464"/>
      <point x="98" y="634"/>
      <point x="98" y="776" type="qcurve" smooth="yes"/>
      <point x="98" y="860"/>
      <point x="166" y="1003"/>
      <point x="226" y="1049" type="qcurve"/>
      <point x="185" y="1086"/>
      <point x="150" y="1179"/>
      <point x="150" y="1239" type="qcurve" smooth="yes"/>
      <point x="150" y="1349"/>
      <point x="319" y="1512"/>
      <point x="472" y="1512" type="qcurve" smooth="yes"/>
      <point x="549" y="1512"/>
      <point x="657" y="1472"/>
      <point x="695" y="1449" type="qcurve"/>
      <point x="709" y="1480" type="line"/>
      <point x="800" y="1480" type="line"/>
      <point x="800" y="1184" type="line"/>
      <point x="694" y="1184" type="line"/>
      <point x="673" y="1297" type="line" smooth="yes"/>
      <point x="665" y="1341"/>
      <point x="558" y="1401"/>
      <point x="476" y="1401" type="qcurve" smooth="yes"/>
      <point x="385" y="1401"/>
      <point x="302" y="1329"/>
      <point x="302" y="1270" type="qcurve" smooth="yes"/>
      <point x="302" y="1208"/>
      <point x="389" y="1141"/>
      <point x="546" y="1097" type="qcurve" smooth="yes"/>
      <point x="700" y="1054"/>
      <point x="885" y="912"/>
      <point x="885" y="767" type="qcurve" smooth="yes"/>
      <point x="885" y="668"/>
      <point x="766" y="516"/>
      <point x="662" y="485" type="qcurve"/>
      <point x="775" y="430"/>
      <point x="916" y="268"/>
    </contour>
    <contour>
      <point x="238" y="810" type="qcurve" smooth="yes"/>
      <point x="238" y="732"/>
      <point x="348" y="615"/>
      <point x="508" y="551" type="qcurve"/>
      <point x="608" y="551"/>
      <point x="741" y="657"/>
      <point x="741" y="740" type="qcurve" smooth="yes"/>
      <point x="741" y="824"/>
      <point x="603" y="899"/>
      <point x="439" y="947" type="qcurve" smooth="yes"/>
      <point x="412" y="955"/>
      <point x="365" y="971"/>
      <point x="344" y="980" type="qcurve"/>
      <point x="294" y="958"/>
      <point x="238" y="870"/>
    </contour>
  </outline>
</glyph>
<glyph name="registered" format="2">
  <advance width="1939"/>
  <unicode hex="00AE"/>
  <outline>
    <contour>
      <point x="46" y="685" type="qcurve" smooth="yes"/>
      <point x="46" y="1061"/>
      <point x="567" y="1570"/>
      <point x="971" y="1570" type="qcurve" smooth="yes"/>
      <point x="1373" y="1570"/>
      <point x="1892" y="1087"/>
      <point x="1892" y="706" type="qcurve" smooth="yes"/>
      <point x="1892" y="288"/>
      <point x="1380" y="-242"/>
      <point x="983" y="-242" type="qcurve" smooth="yes"/>
      <point x="574" y="-242"/>
      <point x="46" y="276"/>
    </contour>
    <contour>
      <point x="211" y="681" type="qcurve" smooth="yes"/>
      <point x="211" y="335"/>
      <point x="668" y="-118"/>
      <point x="999" y="-118" type="qcurve" smooth="yes"/>
      <point x="1320" y="-118"/>
      <point x="1727" y="360"/>
      <point x="1727" y="698" type="qcurve" smooth="yes"/>
      <point x="1727" y="1007"/>
      <point x="1297" y="1446"/>
      <point x="951" y="1446" type="qcurve" smooth="yes"/>
      <point x="623" y="1446"/>
      <point x="211" y="998"/>
    </contour>
    <contour>
      <point x="540" y="176" type="line"/>
      <point x="530" y="266" type="line"/>
      <point x="647" y="290" type="line"/>
      <point x="658" y="723" type="line"/>
      <point x="647" y="1088" type="line"/>
      <point x="520" y="1111" type="line"/>
      <point x="520" y="1209" type="line"/>
      <point x="993" y="1209" type="line" smooth="yes"/>
      <point x="1151" y="1209"/>
      <point x="1304" y="1082"/>
      <point x="1304" y="968" type="qcurve" smooth="yes"/>
      <point x="1304" y="841"/>
      <point x="1117" y="664"/>
      <point x="991" y="664" type="qcurve" smooth="yes"/>
      <point x="940" y="664"/>
      <point x="800" y="673"/>
      <point x="776" y="673" type="qcurve"/>
      <point x="776" y="758" type="line"/>
      <point x="933" y="758" type="line" smooth="yes"/>
      <point x="1052" y="758"/>
      <point x="1136" y="868"/>
      <point x="1136" y="959" type="qcurve" smooth="yes"/>
      <point x="1136" y="1039"/>
      <point x="1044" y="1108"/>
      <point x="941" y="1108" type="qcurve" smooth="yes"/>
      <point x="834" y="1108" type="line"/>
      <point x="813" y="1095" type="line"/>
      <point x="800" y="723" type="line"/>
      <point x="811" y="290" type="line"/>
      <point x="943" y="266" type="line"/>
      <point x="943" y="176" type="line"/>
    </contour>
    <contour>
      <point x="894" y="710" type="line"/>
      <point x="1045" y="738" type="line"/>
      <point x="1295" y="393" type="line" smooth="yes"/>
      <point x="1366" y="295"/>
      <point x="1461" y="266"/>
      <point x="1503" y="266" type="qcurve"/>
      <point x="1503" y="176" type="line"/>
      <point x="1312" y="176" type="line"/>
      <point x="1270" y="190" type="line"/>
    </contour>
  </outline>
</glyph>
<glyph name="questiondown" format="2">
  <advance width="914"/>
  <unicode hex="00BF"/>
  <outline>
    <contour>
      <point x="697" y="1205" type="qcurve" smooth="yes"/>
      <point x="697" y="1147"/>
      <point x="616" y="1061"/>
      <point x="553" y="1061" type="qcurve" smooth="yes"/>
      <point x="490" y="1061"/>
      <point x="409" y="1147"/>
      <point x="409" y="1205" type="qcurve" smooth="yes"/>
      <point x="409" y="1262"/>
      <point x="490" y="1348"/>
      <point x="553" y="1348" type="qcurve" smooth="yes"/>
      <point x="616" y="1348"/>
      <point x="697" y="1262"/>
    </contour>
    <contour>
      <point x="895" y="92" type="qcurve" smooth="yes"/>
      <point x="895" y="-51"/>
      <point x="662" y="-214"/>
      <point x="458" y="-214" type="qcurve" smooth="yes"/>
      <point x="261" y="-214"/>
      <point x="14" y="-22"/>
      <point x="14" y="163" type="qcurve" smooth="yes"/>
      <point x="14" y="356"/>
      <point x="249" y="555"/>
      <point x="334" y="589" type="qcurve" smooth="yes"/>
      <point x="410" y="619"/>
      <point x="516" y="721"/>
      <point x="516" y="804" type="qcurve" smooth="yes"/>
      <point x="516" y="891" type="line"/>
      <point x="616" y="891" type="line"/>
      <point x="631" y="807" type="line" smooth="yes"/>
      <point x="644" y="732"/>
      <point x="545" y="570"/>
      <point x="433" y="506" type="qcurve" smooth="yes"/>
      <point x="343" y="454"/>
      <point x="202" y="326"/>
      <point x="202" y="185" type="qcurve" smooth="yes"/>
      <point x="202" y="50"/>
      <point x="361" y="-103"/>
      <point x="491" y="-103" type="qcurve" smooth="yes"/>
      <point x="613" y="-103"/>
      <point x="751" y="-16"/>
      <point x="751" y="37" type="qcurve" smooth="yes"/>
      <point x="751" y="66"/>
      <point x="630" y="122"/>
      <point x="628" y="171" type="qcurve" smooth="yes"/>
      <point x="625" y="211"/>
      <point x="686" y="275"/>
      <point x="746" y="275" type="qcurve" smooth="yes"/>
      <point x="812" y="275"/>
      <point x="895" y="182"/>
    </contour>
  </outline>
</glyph>
<glyph name="multiply" format="2">
  <advance width="855"/>
  <unicode hex="00D7"/>
  <outline>
    <contour>
      <point x="172" y="276" type="line"/>
      <point x="71" y="377" type="line"/>
      <point x="682" y="988" type="line"/>
      <point x="783" y="887" type="line"/>
    </contour>
    <contour>
      <point x="677" y="271" type="line"/>
      <point x="66" y="882" type="line"/>
      <point x="177" y="993" type="line"/>
      <point x="788" y="382" type="line"/>
    </contour>
  </outline>
</glyph>
<glyph name="ae" format="2">
  <advance width="1609"/>
  <unicode hex="00E6"/>
  <anchor x="797" y="1000" name="top"/>
  <outline>
    <contour>
      <point x="39" y="247" type="qcurve" smooth="yes"/>
      <point x="39" y="384"/>
      <point x="345" y="573"/>
      <point x="694" y="621" type="qcurve"/>
      <point x="703" y="534" type="line"/>
      <point x="475" y="505"/>
      <point x="219" y="391"/>
      <point x="219" y="256" type="qcurve" smooth="yes"/>
      <point x="219" y="182"/>
      <point x="302" y="98"/>
      <point x="388" y="98" type="qcurve" smooth="yes"/>
      <point x="482" y="98"/>
      <point x="669" y="195"/>
      <point x="716" y="258" type="qcurve"/>
      <point x="701" y="287"/>
      <point x="675" y="426"/>
      <point x="675" y="486" type="qcurve" smooth="yes"/>
      <point x="675" y="617" type="line" smooth="yes"/>
      <point x="675" y="793"/>
      <point x="566" y="906"/>
      <point x="471" y="906" type="qcurve" smooth="yes"/>
      <point x="381" y="906"/>
      <point x="266" y="862"/>
      <point x="234" y="832" type="qcurve"/>
      <point x="255" y="811"/>
      <point x="279" y="767"/>
      <point x="282" y="747" type="qcurve" smooth="yes"/>
      <point x="289" y="708"/>
      <point x="245" y="653"/>
      <point x="203" y="653" type="qcurve" smooth="yes"/>
      <point x="161" y="653"/>
      <point x="109" y="730"/>
      <point x="109" y="795" type="qcurve" smooth="yes"/>
      <point x="109" y="888"/>
      <point x="326" y="1023"/>
      <point x="482" y="1023" type="qcurve" smooth="yes"/>
      <point x="616" y="1023"/>
      <point x="759" y="925"/>
      <point x="786" y="854" type="qcurve"/>
      <point x="792" y="854" type="line"/>
      <point x="826" y="913"/>
      <point x="1017" y="1022"/>
      <point x="1145" y="1022" type="qcurve" smooth="yes"/>
      <point x="1340" y="1022"/>
      <point x="1554" y="793"/>
      <point x="1574" y="588" type="qcurve"/>
      <point x="1574" y="528" type="line"/>
      <point x="812" y="528" type="line"/>
      <point x="812" y="624" type="line"/>
      <point x="1406" y="624" type="line"/>
      <point x="1388" y="763"/>
      <point x="1241" y="908"/>
      <point x="1129" y="908" type="qcurve" smooth="yes"/>
      <point x="991" y="908"/>
      <point x="836" y="700"/>
      <point x="837" y="520" type="qcurve" smooth="yes"/>
      <point x="838" y="319"/>
      <point x="1039" y="108"/>
      <point x="1203" y="108" type="qcurve" smooth="yes"/>
      <point x="1306" y="108"/>
      <point x="1441" y="151"/>
      <point x="1486" y="188" type="qcurve"/>
      <point x="1537" y="128" type="line"/>
      <point x="1490" y="65"/>
      <point x="1314" y="-22"/>
      <point x="1183" y="-22" type="qcurve" smooth="yes"/>
      <point x="1009" y="-22"/>
      <point x="810" y="100"/>
      <point x="772" y="172" type="qcurve"/>
      <point x="719" y="110"/>
      <point x="483" y="-16"/>
      <point x="333" y="-16" type="qcurve" smooth="yes"/>
      <point x="182" y="-16"/>
      <point x="39" y="142"/>
    </contour>
  </outline>
</glyph>
<glyph name="eth" format="2">
  <advance width="1108"/>
  <unicode hex="00F0"/>
  <outline>
    <contour>
      <point x="32" y="490" type="qcurve" smooth="yes"/>
      <point x="32" y="707"/>
      <point x="318" y="1004"/>
      <point x="550" y="1004" type="qcurve" smooth="yes"/>
      <point x="783" y="1004"/>
      <point x="1001" y="721"/>
      <point x="1012" y="496" type="qcurve"/>
      <point x="893" y="496" type="line"/>
      <point x="913" y="661"/>
      <point x="727" y="888"/>
      <point x="550" y="888" type="qcurve" smooth="yes"/>
      <point x="386" y="888"/>
      <point x="211" y="690"/>
      <point x="212" y="510" type="qcurve" smooth="yes"/>
      <point x="213" y="329"/>
      <point x="397" y="87"/>
      <point x="548" y="88" type="qcurve" smooth="yes"/>
      <point x="721" y="89"/>
      <point x="899" y="363"/>
      <point x="899" y="621" type="qcurve" smooth="yes"/>
      <point x="899" y="981"/>
      <point x="544" y="1387"/>
      <point x="246" y="1486" type="qcurve"/>
      <point x="282" y="1584" type="line"/>
      <point x="668" y="1474"/>
      <point x="1078" y="952"/>
      <point x="1078" y="624" type="qcurve" smooth="yes"/>
      <point x="1078" y="325"/>
      <point x="805" y="-22"/>
      <point x="555" y="-22" type="qcurve" smooth="yes"/>
      <point x="322" y="-22"/>
      <point x="32" y="257"/>
    </contour>
    <contour>
      <point x="390" y="1214" type="line"/>
      <point x="856" y="1534" type="line"/>
      <point x="923" y="1445" type="line"/>
      <point x="457" y="1125" type="line"/>
    </contour>
  </outline>
</glyph>
<glyph name="gravecomb" format="2">
  <advance width="614"/>
  <unicode hex="0300"/>
  <anchor x="307" y="1000" name="_top"/>
  <anchor x="307" y="1497" name="top"/>
  <outline>
    <contour>
      <point x="23" y="1421" type="qcurve" smooth="yes"/>
      <point x="23" y="1469"/>
      <point x="101" y="1537"/>
      <point x="157" y="1537" type="qcurve" smooth="yes"/>
      <point x="213" y="1537"/>
      <point x="326" y="1432"/>
      <point x="369" y="1378" type="qcurve" smooth="yes"/>
      <point x="498" y="1228" type="line"/>
      <point x="420" y="1147" type="line"/>
      <point x="161" y="1269" type="line" smooth="yes"/>
      <point x="98" y="1293"/>
      <point x="23" y="1357"/>
    </contour>
  </outline>
</glyph>
<glyph name="dieresiscomb" format="2">
  <advance width="614"/>
  <unicode hex="0308"/>
  <anchor x="307" y="1000" name="_top"/>
  <anchor x="307" y="1327" name="top"/>
  <anchor x="307" y="1000" name="_GRKtop"/>
  <outline>
    <contour>
      <point x="421" y="1213" type="qcurve" smooth="yes"/>
      <point x="421" y="1268"/>
      <point x="481" y="1327"/>
      <point x="537" y="1327" type="qcurve" smooth="yes"/>
      <point x="590" y="1327"/>
      <point x="653" y="1264"/>
      <point x="653" y="1213" type="qcurve" smooth="yes"/>
      <point x="653" y="1159"/>
      <point x="594" y="1100"/>
      <point x="537" y="1100" type="qcurve" smooth="yes"/>
      <point x="484" y="1100"/>
      <point x="421" y="1162"/>
    </contour>
    <contour>
      <point x="-39" y="1213" type="qcurve" smooth="yes"/>
      <point x="-39" y="1268"/>
      <point x="21" y="1327"/>
      <point x="77" y="1327" type="qcurve" smooth="yes"/>
      <point x="130" y="1327"/>
      <point x="193" y="1264"/>
      <point x="193" y="1213" type="qcurve" smooth="yes"/>
      <point x="193" y="1159"/>
      <point x="134" y="1100"/>
      <point x="77" y="1100" type="qcurve" smooth="yes"/>
      <point x="24" y="1100"/>
      <point x="-39" y="1162"/>
    </contour>
  </outline>
</glyph>
<glyph name="hungarumlautcomb" format="2">
  <advance width="614"/>
  <unicode hex="030B"/>
  <anchor x="350" y="1000" name="_top"/>
  <anchor x="350" y="1534" name="top"/>
  <outline>
    <contour>
      <point x="354" y="1474" type="qcurve" smooth="yes"/>
      <point x="354" y="1427"/>
      <point x="311" y="1390"/>
      <point x="273" y="1357" type="qcurve" smooth="yes"/>
      <point x="30" y="1150" type="line"/>
      <point x="-44" y="1226" type="line"/>
      <point x="135" y="1453" type="line" smooth="yes"/>
      <point x="167" y="1493"/>
      <point x="222" y="1552"/>
      <point x="259" y="1552" type="qcurve" smooth="yes"/>
      <point x="293" y="1552"/>
      <point x="354" y="1509"/>
    </contour>
    <contour>
      <point x="744" y="1474" type="qcurve" smooth="yes"/>
      <point x="744" y="1427"/>
      <point x="701" y="1390"/>
      <point x="663" y="1357" type="qcurve" smooth="yes"/>
      <point x="420" y="1150" type="line"/>
      <point x="346" y="1226" type="line"/>
      <point x="526" y="1453" type="line" smooth="yes"/>
      <point x="558" y="1493"/>
      <point x="612" y="1552"/>
      <point x="649" y="1552" type="qcurve" smooth="yes"/>
      <point x="683" y="1552"/>
      <point x="744" y="1509"/>
    </contour>
  </outline>
</glyph>
<glyph name="breveinvertedcomb" format="2">
  <advance width="614"/>
  <unicode hex="030F"/>
  <anchor x="307" y="1000" name="_top"/>
  <anchor x="307" y="1470" name="top"/>
  <outline>
    <contour>
      <point x="33" y="1150" type="qcurve"/>
      <point x="-45" y="1203" type="line"/>
      <point x="-30" y="1296"/>
      <point x="181" y="1470"/>
      <point x="306" y="1470" type="qcurve"/>
      <point x="435" y="1470"/>
      <point x="646" y="1296"/>
      <point x="659" y="1203" type="qcurve"/>
      <point x="581" y="1150" type="line"/>
      <point x="554" y="1204"/>
      <point x="406" y="1314"/>
      <point x="307" y="1314" type="qcurve"/>
      <point x="210" y="1314"/>
      <point x="62" y="1204"/>
    </contour>
  </outline>
</glyph>
<glyph name="circumflexcomb.case" format="2">
  <advance width="614"/>
  <anchor x="307" y="1500" name="_top"/>
  <anchor x="307" y="2063" name="top"/>
  <outline>
    <contour>
      <point x="307" y="2063" type="qcurve" smooth="yes"/>
      <point x="341" y="2063"/>
      <point x="386" y="2032"/>
      <point x="417" y="1990" type="qcurve" smooth="yes"/>
      <point x="640" y="1747" type="line"/>
      <point x="568" y="1667" type="line"/>
      <point x="307" y="1869" type="line"/>
      <point x="52" y="1674" type="line"/>
      <point x="-26" y="1747" type="line"/>
      <point x="197" y="1990" type="line" smooth="yes"/>
      <point x="240" y="2037"/>
      <point x="273" y="2063"/>
    </contour>
  </outline>
</glyph>
<glyph name="commaaccentcomb.case" format="2">
  <advance width="614"/>
  <anchor x="314" y="0" name="_bottom"/>
  <anchor x="314" y="-700" name="bottom"/>
  <outline>
    <contour>
      <point x="147" y="-638" type="line"/>
      <point x="187" y="-608"/>
      <point x="292" y="-493"/>
      <point x="306" y="-433" type="qcurve"/>
      <point x="247" y="-432"/>
      <point x="170" y="-360"/>
      <point x="170" y="-303" type="qcurve" smooth="yes"/>
      <point x="170" y="-247"/>
      <point x="248" y="-165"/>
      <point x="309" y="-165" type="qcurve" smooth="yes"/>
      <point x="366" y="-165"/>
      <point x="448" y="-238"/>
      <point x="448" y="-312" type="qcurve" smooth="yes"/>
      <point x="448" y="-429"/>
      <point x="295" y="-641"/>
      <point x="200" y="-700" type="qcurve"/>
    </contour>
  </outline>
</glyph>
<glyph name="dieresiscomb.case" format="2">
  <advance width="614"/>
  <anchor x="307" y="1500" name="_top"/>
  <anchor x="307" y="1901" name="top"/>
  <outline>
    <contour>
      <point x="-39" y="1787" type="qcurve" smooth="yes"/>
      <point x="-39" y="1842"/>
      <point x="21" y="1901"/>
      <point x="77" y="1901" type="qcurve" smooth="yes"/>
      <point x="130" y="1901"/>
      <point x="193" y="1838"/>
      <point x="193" y="1787" type="qcurve" smooth="yes"/>
      <point x="193" y="1733"/>
      <point x="134" y="1674"/>
      <point x="77" y="1674" type="qcurve" smooth="yes"/>
      <point x="24" y="1674"/>
      <point x="-39" y="1736"/>
    </contour>
    <contour>
      <point x="421" y="1787" type="qcurve" smooth="yes"/>
      <point x="421" y="1842"/>
      <point x="481" y="1901"/>
      <point x="537" y="1901" type="qcurve" smooth="yes"/>
      <point x="590" y="1901"/>
      <point x="653" y="1838"/>
      <point x="653" y="1787" type="qcurve" smooth="yes"/>
      <point x="653" y="1733"/>
      <point x="594" y="1674"/>
      <point x="537" y="1674" type="qcurve" smooth="yes"/>
      <point x="484" y="1674"/>
      <point x="421" y="1736"/>
    </contour>
  </outline>
</glyph>
<glyph name="dotaccentcomb.case" format="2">
  <advance width="614"/>
  <anchor x="307" y="1500" name="_top"/>
  <anchor x="307" y="1910" name="top"/>
  <outline>
    <contour>
      <point x="186" y="1792" type="qcurve" smooth="yes"/>
      <point x="186" y="1849"/>
      <point x="248" y="1910"/>
      <point x="307" y="1910" type="qcurve" smooth="yes"/>
      <point x="362" y="1910"/>
      <point x="428" y="1845"/>
      <point x="428" y="1792" type="qcurve" smooth="yes"/>
      <point x="428" y="1735"/>
      <point x="366" y="1674"/>
      <point x="307" y="1674" type="qcurve" smooth="yes"/>
      <point x="252" y="1674"/>
      <point x="186" y="1739"/>
    </contour>
  </outline>
</glyph>
<glyph name="hungarumlautcomb.case" format="2">
  <advance width="614"/>
  <anchor x="307" y="1500" name="_top"/>
  <anchor x="307" y="1994" name="top"/>
  <outline>
    <contour>
      <point x="311" y="1916" type="qcurve" smooth="yes"/>
      <point x="311" y="1869"/>
      <point x="268" y="1832"/>
      <point x="230" y="1799" type="qcurve" smooth="yes"/>
      <point x="-13" y="1592" type="line"/>
      <point x="-87" y="1668" type="line"/>
      <point x="92" y="1895" type="line" smooth="yes"/>
      <point x="124" y="1935"/>
      <point x="179" y="1994"/>
      <point x="216" y="1994" type="qcurve" smooth="yes"/>
      <point x="250" y="1994"/>
      <point x="311" y="1951"/>
    </contour>
    <contour>
      <point x="701" y="1916" type="qcurve" smooth="yes"/>
      <point x="701" y="1869"/>
      <point x="658" y="1832"/>
      <point x="620" y="1799" type="qcurve" smooth="yes"/>
      <point x="377" y="1592" type="line"/>
      <point x="303" y="1668" type="line"/>
      <point x="483" y="1895" type="line" smooth="yes"/>
      <point x="515" y="1935"/>
      <point x="569" y="1994"/>
      <point x="606" y="1994" type="qcurve" smooth="yes"/>
      <point x="640" y="1994"/>
      <point x="701" y="1951"/>
    </contour>
  </outline>
</glyph>
<glyph name="tildecomb.case" format="2">
  <advance width="614"/>
  <anchor x="313" y="1500" name="_top"/>
  <anchor x="313" y="1932" name="top"/>
  <outline>
    <contour>
      <point x="-104" y="1750" type="line"/>
      <point x="-67" y="1819"/>
      <point x="84" y="1932"/>
      <point x="161" y="1932" type="qcurve" smooth="yes"/>
      <point x="207" y="1932"/>
      <point x="289" y="1902"/>
      <point x="331" y="1874" type="qcurve" smooth="yes"/>
      <point x="361" y="1856"/>
      <point x="458" y="1800"/>
      <point x="505" y="1800" type="qcurve" smooth="yes"/>
      <point x="551" y="1800"/>
      <point x="636" y="1857"/>
      <point x="662" y="1896" type="qcurve"/>
      <point x="730" y="1811" type="line"/>
      <point x="688" y="1729"/>
      <point x="549" y="1640"/>
      <point x="486" y="1640" type="qcurve" smooth="yes"/>
      <point x="433" y="1640"/>
      <point x="326" y="1689"/>
      <point x="294" y="1711" type="qcurve" smooth="yes"/>
      <point x="258" y="1736"/>
      <point x="175" y="1774"/>
      <point x="142" y="1774" type="qcurve" smooth="yes"/>
      <point x="89" y="1774"/>
      <point x="-9" y="1695"/>
      <point x="-29" y="1665" type="qcurve"/>
    </contour>
  </outline>
</glyph>
